<?xml version="1.0" encoding="UTF-8" standalone="no"?>
<svg width="17px" height="35px" viewBox="0 0 17 35" version="1.1" xmlns="http://www.w3.org/2000/svg" xmlns:xlink="http://www.w3.org/1999/xlink" xmlns:sketch="http://www.bohemiancoding.com/sketch/ns">
    <!-- Generator: Sketch 3.3 (11970) - http://www.bohemiancoding.com/sketch -->
    <title>Leaf</title>
    <desc>Created with Sketch.</desc>
    <defs></defs>
    <g id="Welcome" stroke="none" stroke-width="1" fill="none" fill-rule="evenodd" sketch:type="MSPage">
        <g id="Desktop-Copy-3" sketch:type="MSArtboardGroup" transform="translate(-504.000000, -928.000000)" fill="#57AD68">
            <g id="hr" sketch:type="MSLayerGroup" transform="translate(178.000000, 925.800000)">
                <g id="Rectangle-89-+-Leaf" transform="translate(315.000000, 0.000000)" sketch:type="MSShapeGroup">
                    <g id="Leaf" transform="translate(11.000000, 3.000000)">
                        <path d="M10.5209961,28.7158682 C12.7102522,31.6725557 13.1088865,33.976 13.1088865,33.976 L13.8582761,33.976 C13.8582761,33.976 11.7806835,29.3618518 12.4765625,28.0337393 C13.5229492,26.0366689 16.9697263,24.9561025 16.9697263,20.3247549 C16.9697263,15.6919626 13.9116208,13.1777822 10.5209958,9.68852441 C7.13037085,6.1992666 5.34570313,0.0854970703 5.34570313,0.0854970703 C5.34570313,0.0854970703 -0.715740937,10.5507857 0.63671875,18.0327627 C1.98917844,25.5147397 8.76363763,26.3424776 10.5209961,28.7158682 Z M10.9024658,25.3612065 L11.6583039,24.0842887 L5.57598887,7.67011753 L4.96301269,9.04821775 L10.9024658,25.3612065 Z" id="Path-1"></path>
                    </g>
                </g>
            </g>
        </g>
    </g>
</svg>